# xmcd
#
# Track frame offsets:
#	150
#	8773
#	19285
#	30676
#	45838
#	62777
#	77793
#	88395
#	101608
#	113845
#	129948
#	142648
#	152496
#	164263
#	177792
#	192771
#	207673
#	224899
#	237838
#	249782
#
# Disc length: 3516 seconds
#
# Revision: 0
# Processed by: cddbd v1.5.2PL0 Copyright (c) Steve Scherf et al.
# Submitted via: EasyCDDAExtractor 2010.6.0.0
#
DISCID=050dba14
DTITLE=Lynn Anderson - Country Ladies [CD 1)
DYEAR=1900
DGENRE=Country
TTITLE0=Ride, ride, ride
TTITLE1=I've been everywhere
TTITLE2=Listen to a country song
TTITLE3=I was country when country wasn't cool
TTITLE4=Blue bayou
TTITLE5=Desperado
TTITLE6=Heartbreak hotel
TTITLE7=Rose garden
TTITLE8=Stand by your man
TTITLE9=The Devil went down to Georgia
TTITLE10=Top of the world
TTITLE11=What a man my man is
TTITLE12=How can I unlove you
TTITLE13=Talking in your sleep
TTITLE14=Could I have this dance
TTITLE15=Faithless love
TTITLE16=Close to you
TTITLE17=Danny's song
TTITLE18=Even cowgirls get the blues
TTITLE19=Cry
EXTD=
EXTT0=
EXTT1=
EXTT2=
EXTT3=
EXTT4=
EXTT5=
EXTT6=
EXTT7=
EXTT8=
EXTT9=
EXTT10=
EXTT11=
EXTT12=
EXTT13=
EXTT14=
EXTT15=
EXTT16=
EXTT17=
EXTT18=
EXTT19=
PLAYORDER=
